<?xml version="1.0" encoding="UTF-8" standalone="no"?>
<svg width="78px" height="104px" viewBox="0 0 78 104" version="1.1" xmlns="http://www.w3.org/2000/svg" xmlns:xlink="http://www.w3.org/1999/xlink">
    <g fill="#000000" opacity="0.3">
        <path d="M52,13.067 L64.964,20.485 L64.964,13.105 L77.969,20.5 L77.969,5.65 L64.964,13.012 L64.964,5.634 L52,13.067 Z"></path>
        <path d="M67.499,76.5 L75.449,76.5 L75.449,53.597 L67.499,53.597 L67.499,76.5 Z M54.5,76.5 L62.452,76.5 L62.452,53.597 L54.5,53.597 L54.5,76.5 Z"></path>
        <path d="M65.031,98.484 L65.031,91.105 L52,98.5 L52,83.65 L65.031,91.011 L65.031,83.633 L77.922,91.067 L65.031,98.484 Z"></path>
        <path d="M53.534,27.5 L53.534,50.464 L53.5,50.5 L76.417,39.001 L53.534,27.5 Z"></path>
    </g>
    <g fill="#ffffff">
        <path d="M26,13.067 L38.964,20.485 L38.964,13.105 L51.969,20.5 L51.969,5.65 L38.964,13.012 L38.964,5.634 L26,13.067 Z"></path>
        <path d="M41.499,76.5 L49.449,76.5 L49.449,53.597 L41.499,53.597 L41.499,76.5 Z M28.5,76.5 L36.452,76.5 L36.452,53.597 L28.5,53.597 L28.5,76.5 Z"></path>
        <path d="M39.031,98.484 L39.031,91.105 L26,98.5 L26,83.65 L39.031,91.011 L39.031,83.633 L51.922,91.067 L39.031,98.484 Z"></path>
        <path d="M27.534,27.5 L27.534,50.464 L27.5,50.5 L50.417,39.001 L27.534,27.5 Z"></path>
    </g>
    <g fill="#000000">
        <path d="M0,13.067 L12.964,20.485 L12.964,13.105 L25.969,20.5 L25.969,5.65 L12.964,13.012 L12.964,5.634 L0,13.067 Z"></path>
        <path d="M15.499,76.5 L23.449,76.5 L23.449,53.597 L15.499,53.597 L15.499,76.5 Z M2.5,76.5 L10.452,76.5 L10.452,53.597 L2.5,53.597 L2.5,76.5 Z"></path>
        <path d="M13.031,98.484 L13.031,91.105 L0,98.5 L0,83.65 L13.031,91.011 L13.031,83.633 L25.922,91.067 L13.031,98.484 Z"></path>
        <path d="M1.534,27.5 L1.534,50.464 L1.5,50.5 L24.417,39.001 L1.534,27.5 Z"></path>
    </g>
</svg>